<svg width="35" height="43" viewBox="0 0 35 43" fill="none" xmlns="http://www.w3.org/2000/svg">
<path d="M5.33325 34.6667H7.62659V32.2667H8.66659C10.3199 32.2667 11.7066 31.0667 11.7066 29.44C11.7066 27.8133 10.3733 26.64 8.66659 26.64H5.33325V34.64V34.6667ZM7.62659 30.4267V28.5067H8.42658C8.95992 28.5067 9.41325 28.8533 9.41325 29.44C9.41325 30.0267 8.98658 30.4 8.42658 30.4H7.62659V30.4267ZM13.8399 34.6667H17.0133C19.6799 34.6667 21.3333 33.0933 21.3333 30.6133C21.3333 28.2933 19.6799 26.6667 17.0133 26.6667H13.8399V34.6667ZM16.1333 32.7733V28.5333H16.9066C17.7866 28.5333 18.9866 28.96 18.9866 30.6133C18.9866 32.3467 17.7866 32.7733 16.9066 32.7733H16.1333ZM23.9999 34.6667H26.2933V31.8133H29.1199V29.9733H26.2933V28.5333H29.5199V26.6933H24.0266V34.6933L23.9999 34.6667Z" fill="#1E8CFA"/>
<path d="M30.6667 42.6667H4C1.78667 42.6667 0 40.88 0 38.6667V4C0 1.78667 1.78667 0 4 0H22.9067C23.9733 0 24.9867 0.426667 25.7333 1.17333L33.4933 8.93333C34.24 9.68 34.6667 10.6933 34.6667 11.76V38.6667C34.6667 40.88 32.88 42.6667 30.6667 42.6667ZM4 2.66667C3.25333 2.66667 2.66667 3.25333 2.66667 4V38.6667C2.66667 39.4133 3.25333 40 4 40H30.6667C31.4133 40 32 39.4133 32 38.6667V11.76C32.0021 11.5851 31.9676 11.4118 31.8988 11.251C31.8299 11.0903 31.7281 10.9457 31.6 10.8267L23.84 3.06667C23.5938 2.81545 23.2584 2.67168 22.9067 2.66667H4Z" fill="#1E8CFA"/>
<path d="M33.0133 13.3333H25.2533C23.0933 13.3333 21.3333 11.5733 21.3333 9.41328V1.65328C21.3333 0.906613 21.9199 0.319946 22.6666 0.319946C23.4133 0.319946 23.9999 0.906613 23.9999 1.65328V9.41328C23.9999 10.1066 24.5599 10.6666 25.2533 10.6666H33.0133C33.7599 10.6666 34.3466 11.2533 34.3466 11.9999C34.3466 12.7466 33.7599 13.3333 33.0133 13.3333Z" fill="#1E8CFA"/>
</svg>
